<svg width="24" height="24" viewBox="0 0 24 24" fill="none" xmlns="http://www.w3.org/2000/svg">
<path fill-rule="evenodd" clip-rule="evenodd" d="M12 1C10.4536 1 9.19995 2.2536 9.19995 3.8V4.31731C8.9778 4.39829 8.76018 4.48862 8.54755 4.58781L8.18156 4.22182C7.0881 3.12836 5.31523 3.12836 4.22177 4.22182C3.1283 5.31529 3.1283 7.08815 4.22177 8.18162L4.58776 8.54761C4.48857 8.76024 4.39824 8.97786 4.31726 9.2H3.8C2.2536 9.2 1 10.4536 1 12C1 13.5464 2.2536 14.8 3.8 14.8H4.31727C4.39825 15.0222 4.48859 15.2398 4.58778 15.4524L4.22185 15.8184C3.12838 16.9118 3.12838 18.6847 4.22185 19.7782C5.31532 20.8716 7.08818 20.8716 8.18165 19.7782L8.54761 19.4122C8.76022 19.5114 8.97782 19.6017 9.19995 19.6827V20.2C9.19995 21.7464 10.4536 23 12 23C13.5463 23 14.8 21.7464 14.8 20.2V19.6827C15.0221 19.6017 15.2397 19.5114 15.4523 19.4122L15.8183 19.7782C16.9118 20.8716 18.6847 20.8716 19.7781 19.7782C20.8716 18.6847 20.8716 16.9118 19.7781 15.8184L19.4121 15.4524C19.5113 15.2398 19.6017 15.0221 19.6826 14.8H20.2C21.7464 14.8 23 13.5464 23 12C23 10.4536 21.7464 9.2 20.2 9.2H19.6826C19.6017 8.97787 19.5113 8.76026 19.4122 8.54765L19.7782 8.18162C20.8717 7.08815 20.8717 5.31529 19.7782 4.22182C18.6847 3.12835 16.9119 3.12835 15.8184 4.22182L15.4524 4.58783C15.2398 4.48863 15.0221 4.3983 14.8 4.31731V3.8C14.8 2.2536 13.5463 1 12 1ZM10.7 3.8C10.7 3.08203 11.282 2.5 12 2.5C12.7179 2.5 13.3 3.08203 13.3 3.8V4.86161C13.3 5.19623 13.5216 5.49037 13.8433 5.58257C14.3319 5.72263 14.7977 5.91707 15.2337 6.15905C15.5264 6.32147 15.8913 6.27028 16.128 6.03359L16.8791 5.28248C17.3867 4.7748 18.2099 4.7748 18.7175 5.28248C19.2252 5.79016 19.2252 6.61328 18.7175 7.12096L17.9664 7.87209C17.7297 8.10878 17.6785 8.47366 17.8409 8.76634C18.0829 9.20234 18.2773 9.66809 18.4174 10.1567C18.5096 10.4783 18.8037 10.7 19.1383 10.7H20.2C20.918 10.7 21.5 11.282 21.5 12C21.5 12.718 20.918 13.3 20.2 13.3H19.1383C18.8037 13.3 18.5096 13.5217 18.4174 13.8433C18.2773 14.3319 18.0829 14.7977 17.8409 15.2337C17.6785 15.5264 17.7297 15.8913 17.9664 16.128L18.7175 16.879C19.2251 17.3867 19.2251 18.2098 18.7175 18.7175C18.2098 19.2252 17.3867 19.2252 16.879 18.7175L16.1279 17.9664C15.8912 17.7297 15.5263 17.6786 15.2336 17.841C14.7976 18.0829 14.3319 18.2774 13.8433 18.4174C13.5216 18.5096 13.3 18.8038 13.3 19.1384V20.2C13.3 20.918 12.7179 21.5 12 21.5C11.282 21.5 10.7 20.918 10.7 20.2V19.1384C10.7 18.8038 10.4783 18.5096 10.1566 18.4174C9.66804 18.2774 9.2023 18.0829 8.76629 17.841C8.47361 17.6786 8.10873 17.7298 7.87204 17.9665L7.12099 18.7175C6.61331 19.2252 5.79019 19.2252 5.28251 18.7175C4.77483 18.2098 4.77483 17.3867 5.28251 16.879L6.03355 16.128C6.27024 15.8913 6.32143 15.5264 6.159 15.2337C5.91703 14.7977 5.72259 14.3319 5.58253 13.8433C5.49032 13.5217 5.19618 13.3 4.86157 13.3H3.8C3.08203 13.3 2.5 12.718 2.5 12C2.5 11.282 3.08203 10.7 3.8 10.7H4.86156C5.19618 10.7 5.49032 10.4783 5.58253 10.1567C5.72258 9.66808 5.91701 9.20232 6.15898 8.7663C6.3214 8.47362 6.27021 8.10874 6.03352 7.87205L5.28243 7.12096C4.77474 6.61328 4.77474 5.79017 5.28243 5.28248C5.79011 4.7748 6.61322 4.7748 7.1209 5.28248L7.87199 6.03357C8.10868 6.27026 8.47356 6.32145 8.76624 6.15903C9.20226 5.91706 9.66802 5.72263 10.1566 5.58257C10.4783 5.49037 10.7 5.19623 10.7 4.86161V3.8ZM9.75 12C9.75 10.7574 10.7574 9.75 12 9.75C13.2426 9.75 14.25 10.7574 14.25 12C14.25 13.2426 13.2426 14.25 12 14.25C10.7574 14.25 9.75 13.2426 9.75 12ZM12 8.25C9.92893 8.25 8.25 9.92893 8.25 12C8.25 14.0711 9.92893 15.75 12 15.75C14.0711 15.75 15.75 14.0711 15.75 12C15.75 9.92893 14.0711 8.25 12 8.25Z" fill="#C6CACD"/>
</svg>
