<svg width="24" height="24" viewBox="0 0 24 24" fill="none" xmlns="http://www.w3.org/2000/svg">
<path d="M12 3C9.99995 3.00005 6.15004 5.00005 5.75005 9C5.37938 12.7067 4.94085 15.5653 3.40053 17.8552C3.02759 18.4096 3.39253 19.25 4.06071 19.25H19.9393C20.6075 19.25 20.9724 18.4096 20.5995 17.8552C19.0592 15.5653 18.6206 12.7067 18.25 9C17.85 5.00005 14 3.00005 12 3Z" fill="white" stroke="white" stroke-width="1.5" stroke-linejoin="round"/>
<path d="M10.5 3L10.5 2.5C10.5 1.67157 11.1716 1 12 1C12.8284 1 13.5 1.67157 13.5 2.5L13.5 3L10.5 3Z" fill="white"/>
<path d="M15 19.25L15 19.5C15 21.1569 13.6569 22.5 12 22.5V22.5C10.3431 22.5 9 21.1569 9 19.5L9 19.25L15 19.25Z" stroke="white" stroke-width="1.5" stroke-linecap="round" stroke-linejoin="round"/>
</svg>
