<svg width="24" height="24" viewBox="0 0 24 24" fill="none" xmlns="http://www.w3.org/2000/svg">
<path fill-rule="evenodd" clip-rule="evenodd" d="M11.0926 4.43835C11.1492 4.47056 11.2015 4.50029 11.25 4.52763V7C11.25 7.41421 11.5858 7.75 12 7.75C12.4142 7.75 12.75 7.41421 12.75 7V4.52763C12.7985 4.50029 12.8508 4.47056 12.9074 4.43835L12.9076 4.43824C15.0344 3.22941 16.7712 3.03659 19.3989 3.00583C19.9531 2.99935 20.2302 2.9961 20.4467 3.10417C20.6356 3.1985 20.7929 3.35393 20.8894 3.54175C21 3.75693 21 4.03795 21 4.6V13.4C21 13.958 21 14.237 20.8926 14.4496C20.7974 14.6381 20.6486 14.7886 20.4613 14.886C20.2499 14.9959 19.9662 14.9992 19.3989 15.0058H19.3989C16.7712 15.0366 15.0344 15.2294 12.9076 16.4382C12.5414 16.6464 12.3583 16.7505 12.2053 16.7826C12.0511 16.8149 11.9489 16.8149 11.7947 16.7826C11.6417 16.7505 11.4586 16.6464 11.0924 16.4382C8.96562 15.2294 7.22884 15.0366 4.60111 15.0058H4.60109C4.03376 14.9992 3.75009 14.9959 3.53872 14.886C3.35135 14.7886 3.20262 14.6381 3.1074 14.4496C3 14.237 3 13.958 3 13.4V4.6C3 4.03795 3 3.75693 3.11059 3.54175C3.20713 3.35393 3.36438 3.1985 3.55332 3.10417C3.76978 2.9961 4.04689 2.99935 4.60111 3.00583C7.22884 3.03659 8.96562 3.22941 11.0924 4.43824L11.0926 4.43835ZM3 17.75C2.58579 17.75 2.25 18.0858 2.25 18.5C2.25 18.9142 2.58579 19.25 3 19.25C4.97377 19.25 6.39687 19.3743 7.67766 19.7236C8.95056 20.0707 10.1262 20.6522 11.584 21.624C11.8359 21.792 12.1641 21.792 12.416 21.624C13.8738 20.6522 15.0494 20.0707 16.3223 19.7236C17.6031 19.3743 19.0262 19.25 21 19.25C21.4142 19.25 21.75 18.9142 21.75 18.5C21.75 18.0858 21.4142 17.75 21 17.75C18.9738 17.75 17.3969 17.8757 15.9277 18.2764C14.585 18.6426 13.3686 19.2283 12 20.1041C10.6314 19.2283 9.41499 18.6426 8.07234 18.2764C6.60313 17.8757 5.02623 17.75 3 17.75Z" fill="white"/>
</svg>
