<svg width="24" height="24" viewBox="0 0 24 24" fill="none" xmlns="http://www.w3.org/2000/svg">
<path fill-rule="evenodd" clip-rule="evenodd" d="M10.3881 2L10.214 1.99997C8.63173 1.99951 7.61538 1.99922 6.74312 2.35915C5.97502 2.67611 5.3035 3.18901 4.79561 3.84666C4.21885 4.59347 3.95172 5.57408 3.53583 7.10074L3.49006 7.26871L2.5117 10.856L2.49876 10.9035C2.27379 11.7283 2.14496 12.2006 2.0697 12.6824C1.96104 13.378 1.93672 14.0841 1.99726 14.7855C2.0392 15.2713 2.13523 15.7514 2.30291 16.5897L2.31256 16.6379L2.34187 16.7846C2.60608 18.1074 2.77534 18.9548 3.17363 19.6392C3.74845 20.6269 4.66012 21.3743 5.74141 21.7442C6.49062 22.0006 7.35475 22.0004 8.70363 22L8.85322 22H15.1464L15.296 22C16.6449 22.0004 17.509 22.0006 18.2582 21.7442C19.3395 21.3743 20.2512 20.6269 20.826 19.6392C21.2243 18.9548 21.3936 18.1074 21.6578 16.7847L21.6871 16.6379L21.6967 16.5897C21.8644 15.7514 21.9604 15.2713 22.0024 14.7855C22.0629 14.0841 22.0386 13.378 21.93 12.6824C21.8547 12.2006 21.7259 11.7283 21.5009 10.9035L21.5009 10.9035L21.4879 10.856L20.5096 7.26872L20.4638 7.10075C20.0479 5.57408 19.7808 4.59347 19.204 3.84666C18.6961 3.18901 18.0246 2.67611 17.2565 2.35915C16.3843 1.99922 15.3679 1.99951 13.7856 1.99997L13.6115 2H11.9998H10.3881ZM7.3153 3.74574C7.87731 3.51382 8.56942 3.5 10.3881 3.5H11.9998H13.6115C15.4302 3.5 16.1223 3.51382 16.6844 3.74574C17.2099 3.9626 17.6694 4.31354 18.0169 4.7635C18.3885 5.24469 18.5839 5.90878 19.0624 7.66339L20.0408 11.2507C20.2822 12.1358 20.3871 12.5244 20.4479 12.9139C20.4524 12.9426 20.4567 12.9713 20.4608 13H17.7124L17.6186 13C17.0843 12.9996 16.6643 12.9993 16.2711 13.1187C15.9252 13.2237 15.6033 13.396 15.324 13.6255C15.0066 13.8864 14.7738 14.2361 14.4778 14.6809L14.4778 14.6809L14.4258 14.7589L14.3258 14.909C13.9525 15.4689 13.8462 15.6145 13.7231 15.7157C13.5962 15.82 13.4499 15.8983 13.2927 15.9461C13.1402 15.9924 12.9601 16 12.2872 16H11.7124C11.0396 16 10.8594 15.9924 10.707 15.9461C10.5497 15.8983 10.4034 15.82 10.2765 15.7157C10.1534 15.6145 10.0471 15.4689 9.67388 14.909L9.57383 14.7589L9.52185 14.6809C9.2258 14.2361 8.99304 13.8864 8.67559 13.6255C8.39629 13.396 8.07448 13.2237 7.72856 13.1187C7.33537 12.9993 6.9153 12.9996 6.381 13L6.28723 13H3.53881C3.54294 12.9713 3.54724 12.9426 3.55172 12.9139C3.61258 12.5244 3.71745 12.1358 3.95885 11.2507L4.9372 7.66339C5.41573 5.90878 5.61117 5.24469 5.98279 4.7635C6.33029 4.31354 6.78975 3.9626 7.3153 3.74574ZM3.47989 14.4997C3.48326 14.552 3.4872 14.6043 3.49171 14.6565C3.52561 15.0493 3.6035 15.4441 3.78343 16.3438C4.08756 17.8644 4.21359 18.444 4.47007 18.8847C4.86337 19.5605 5.48715 20.0719 6.22698 20.325C6.70946 20.4901 7.30246 20.5 8.85322 20.5H15.1464C16.6972 20.5 17.2902 20.4901 17.7727 20.325C18.5125 20.0719 19.1363 19.5605 19.5296 18.8847C19.7861 18.444 19.9121 17.8644 20.2162 16.3438C20.3961 15.4441 20.474 15.0493 20.5079 14.6565C20.5125 14.6043 20.5164 14.552 20.5198 14.4997C20.5131 14.4999 20.5065 14.5 20.4998 14.5H17.7124C17.0396 14.5 16.8594 14.5076 16.707 14.5539C16.5497 14.6017 16.4034 14.68 16.2765 14.7843C16.1534 14.8855 16.0471 15.0312 15.6739 15.591L15.5738 15.7411L15.5219 15.8191C15.2258 16.2639 14.993 16.6136 14.6756 16.8745C14.3963 17.1041 14.0745 17.2763 13.7286 17.3813C13.3354 17.5007 12.9153 17.5004 12.381 17.5H12.381L12.2872 17.5H11.7124L11.6186 17.5H11.6186C11.0843 17.5004 10.6643 17.5007 10.2711 17.3813C9.92515 17.2763 9.60334 17.1041 9.32405 16.8745C9.0066 16.6136 8.77384 16.2639 8.47778 15.8191L8.42581 15.7411L8.32575 15.591C7.95253 15.0312 7.84624 14.8855 7.72315 14.7843C7.5962 14.68 7.44992 14.6017 7.29268 14.5539C7.14023 14.5076 6.96007 14.5 6.28723 14.5H3.49982C3.49315 14.5 3.48651 14.4999 3.47989 14.4997Z" fill="#C6CACD"/>
</svg>
