<svg width="24" height="24" viewBox="0 0 24 24" fill="none" xmlns="http://www.w3.org/2000/svg">
<path d="M2.75 9.15C2.75 6.90979 2.75 5.78968 3.18598 4.93404C3.56947 4.18139 4.18139 3.56947 4.93404 3.18597C5.78969 2.75 6.90979 2.75 9.15 2.75H14.85C17.0902 2.75 18.2103 2.75 19.066 3.18597C19.8186 3.56947 20.4305 4.18139 20.814 4.93404C21.25 5.78968 21.25 6.90979 21.25 9.15V14.85C21.25 17.0902 21.25 18.2103 20.814 19.066C20.4305 19.8186 19.8186 20.4305 19.066 20.814C18.2103 21.25 17.0902 21.25 14.85 21.25H9.15C6.90979 21.25 5.78969 21.25 4.93404 20.814C4.18139 20.4305 3.56947 19.8186 3.18598 19.066C2.75 18.2103 2.75 17.0902 2.75 14.85V9.15Z" stroke="#C6CACD" stroke-width="1.5" stroke-linecap="round" stroke-linejoin="round"/>
<path d="M2.75 9.15C2.75 6.90979 2.75 5.78968 3.18598 4.93404C3.56947 4.18139 4.18139 3.56947 4.93404 3.18597C5.78969 2.75 6.90979 2.75 9.15 2.75H14.85C17.0902 2.75 18.2103 2.75 19.066 3.18597C19.8186 3.56947 20.4305 4.18139 20.814 4.93404C21.25 5.78968 21.25 6.90979 21.25 9.15V14.85C21.25 17.0902 21.25 18.2103 20.814 19.066C20.4305 19.8186 19.8186 20.4305 19.066 20.814C18.2103 21.25 17.0902 21.25 14.85 21.25H9.15C6.90979 21.25 5.78969 21.25 4.93404 20.814C4.18139 20.4305 3.56947 19.8186 3.18598 19.066C2.75 18.2103 2.75 17.0902 2.75 14.85V9.15Z" stroke="#C6CACD" stroke-width="1.5" stroke-linecap="round" stroke-linejoin="round"/>
<circle cx="11.9999" cy="9.91667" r="2.66667" stroke="#C6CACD" stroke-width="1.5" stroke-linecap="round" stroke-linejoin="round"/>
<path d="M16 16.25C16 14.5409 14.2091 13 12 13C9.79087 13 8 14.5409 8 16.25" stroke="#C6CACD" stroke-width="1.5" stroke-linecap="round" stroke-linejoin="round"/>
<path d="M0.750004 8C0.750004 7.44772 1.19772 7 1.75 7H2.75V9H1.75C1.19772 9 0.750004 8.55228 0.750004 8Z" fill="#C6CACD"/>
<path d="M0.750004 12C0.750004 11.4477 1.19772 11 1.75 11H2.75V13H1.75C1.19772 13 0.750004 12.5523 0.750004 12Z" fill="#C6CACD"/>
<path d="M0.750004 16C0.750004 15.4477 1.19772 15 1.75 15H2.75V17H1.75C1.19772 17 0.750004 16.5523 0.750004 16Z" fill="#C6CACD"/>
</svg>
