<svg width="24" height="24" viewBox="0 0 24 24" fill="none" xmlns="http://www.w3.org/2000/svg">
<path fill-rule="evenodd" clip-rule="evenodd" d="M11.0363 7.48841C10.9368 7.9246 10.586 8.26527 10.1369 8.36195L5.41353 9.38166C4.1764 9.64867 4.1764 11.3612 5.41353 11.6282L10.1369 12.648C10.586 12.7446 10.9368 13.0853 11.0363 13.5215L12.0862 18.109C12.3611 19.3106 14.1244 19.3106 14.3993 18.109L15.4492 13.5215C15.5487 13.0853 15.8995 12.7446 16.3486 12.648L21.072 11.6282C22.3091 11.3612 22.3091 9.64867 21.072 9.38166L16.3486 8.36195C15.8995 8.26527 15.5487 7.9246 15.4492 7.48841L14.3993 2.90086C14.1244 1.69931 12.3611 1.69931 12.0862 2.90086L11.0363 7.48841ZM4.73448 16.9049C4.63495 17.3411 4.28419 17.6818 3.83508 17.7785L2.38939 18.0904C1.87037 18.202 1.87037 18.9202 2.38939 19.0318L3.83508 19.3437C4.28419 19.4404 4.63495 19.7811 4.73448 20.2173L5.05562 21.6214C5.17056 22.1255 5.90999 22.1255 6.02494 21.6214L6.34607 20.2173C6.44561 19.7811 6.79637 19.4404 7.24548 19.3437L8.69116 19.0318C9.21019 18.9202 9.21019 18.202 8.69116 18.0904L7.24548 17.7785C6.79637 17.6818 6.44561 17.3411 6.34607 16.9049L6.02494 15.5008C5.90999 14.9967 5.17056 14.9967 5.05562 15.5008L4.73448 16.9049Z" fill="white"/>
</svg>
