<svg width="24" height="24" viewBox="0 0 24 24" fill="none" xmlns="http://www.w3.org/2000/svg">
<path d="M7.75 22H6.79981C5.11978 22 4.27941 21.9998 3.6377 21.6729C3.07348 21.3853 2.61473 20.9265 2.32715 20.3623C2.00018 19.7206 2 18.8802 2 17.2002V6.7998C2 5.11978 2.00018 4.27941 2.32715 3.6377C2.61473 3.07347 3.07348 2.61472 3.6377 2.32715C4.27941 2.00018 5.11978 2 6.79981 2H7.75V22ZM14.75 22H9.25V2H14.75V22ZM17.2002 2C18.8802 2 19.7206 2.00018 20.3623 2.32715C20.9265 2.61472 21.3853 3.07347 21.6729 3.6377C21.9998 4.27941 22 5.11978 22 6.7998V17.2002C22 18.8802 21.9998 19.7206 21.6729 20.3623C21.3853 20.9265 20.9265 21.3853 20.3623 21.6729C19.7206 21.9998 18.8802 22 17.2002 22H16.25V2H17.2002Z" fill="white"/>
</svg>
