<svg width="24" height="24" viewBox="0 0 24 24" fill="none" xmlns="http://www.w3.org/2000/svg">
<path fill-rule="evenodd" clip-rule="evenodd" d="M14.3701 5.25119C15.2006 4.6543 15.7815 4.23765 16.2394 3.96809C16.7059 3.69348 16.9253 3.64694 17.0437 3.65109C17.4152 3.66409 17.7615 3.8417 17.9889 4.13571C18.0614 4.22948 18.1516 4.43478 18.2009 4.97384C18.2493 5.50298 18.25 6.21791 18.25 7.24063L18.25 14.259C18.25 15.2817 18.2493 15.9966 18.2009 16.5258C18.1516 17.0649 18.0614 17.2702 17.9889 17.3639C17.7615 17.6579 17.4152 17.8355 17.0437 17.8485C16.9253 17.8527 16.7059 17.8061 16.2394 17.5315C15.7815 17.262 15.2006 16.8453 14.3701 16.2484L11.4377 14.1408C11.2998 14.0417 11.1397 13.9961 10.982 14L5.75 14C3.95508 14 2.5 12.5449 2.5 10.75C2.5 8.95507 3.95508 7.49999 5.75 7.49999L11 7.49999C11.1694 7.49999 11.3256 7.44385 11.4512 7.34917L14.3701 5.25119ZM10.7582 5.99999L13.4946 4.03317L13.5262 4.01047C14.3178 3.44154 14.9543 2.984 15.4785 2.67544C16.001 2.36785 16.5321 2.13225 17.0962 2.15201C17.9134 2.18062 18.6754 2.57135 19.1755 3.21817C19.5208 3.66474 19.6395 4.23351 19.6947 4.83732C19.75 5.443 19.75 6.22694 19.75 7.20172L19.75 7.24063L19.75 8.29268C19.8282 8.26504 19.9123 8.25 20 8.25L20.25 8.25C22.3211 8.25 24 9.92893 24 12C24 14.0711 22.3211 15.75 20.25 15.75L20 15.75C19.9091 15.75 19.8221 15.7338 19.7415 15.7042C19.7341 16.0627 19.7203 16.3817 19.6947 16.6623C19.6395 17.2661 19.5208 17.8349 19.1755 18.2815C18.6754 18.9283 17.9134 19.319 17.0962 19.3476C16.5321 19.3674 16.001 19.1318 15.4785 18.8242C14.9544 18.5157 14.3178 18.0581 13.5263 17.4893L13.5263 17.4892L13.4946 17.4665L10.7587 15.5L9.50001 15.5L9.50001 18.7501C9.50001 19.9927 8.49265 21.0001 7.25001 21.0001C6.00737 21.0001 5.00001 19.9927 5.00001 18.7501L5.00001 15.4411C2.73302 15.0815 1 13.1181 1 10.75C1 8.12664 3.12665 5.99999 5.75 5.99999L10.7582 5.99999ZM6.50001 15.5001L6.50001 18.7501C6.50001 19.1643 6.83579 19.5001 7.25001 19.5001C7.66422 19.5001 8.00001 19.1643 8.00001 18.7501L8.00001 15.5001L6.50001 15.5001ZM22.5 12C22.5 13.0708 21.752 13.9669 20.75 14.1942L20.75 9.80575C21.752 10.0331 22.5 10.9292 22.5 12Z" fill="#C6CACD"/>
</svg>
