<svg width="24" height="24" viewBox="0 0 24 24" fill="none" xmlns="http://www.w3.org/2000/svg">
<path fill-rule="evenodd" clip-rule="evenodd" d="M22 12C22 17.5228 17.5228 22 12 22C6.47715 22 2 17.5228 2 12C2 6.47715 6.47715 2 12 2C17.5228 2 22 6.47715 22 12ZM13 16C13 16.5523 12.5523 17 12 17C11.4477 17 11 16.5523 11 16C11 15.4477 11.4477 15 12 15C12.5523 15 13 15.4477 13 16ZM10.75 10C10.75 9.30964 11.3096 8.75 12 8.75C12.6904 8.75 13.25 9.30964 13.25 10V10.1213C13.25 10.485 13.1055 10.8338 12.8483 11.091L11.4697 12.4697C11.1768 12.7626 11.1768 13.2374 11.4697 13.5303C11.7626 13.8232 12.2374 13.8232 12.5303 13.5303L13.909 12.1517C14.4475 11.6132 14.75 10.8828 14.75 10.1213V10C14.75 8.48122 13.5188 7.25 12 7.25C10.4812 7.25 9.25 8.48122 9.25 10V10.5C9.25 10.9142 9.58579 11.25 10 11.25C10.4142 11.25 10.75 10.9142 10.75 10.5V10Z" fill="white"/>
</svg>
