<svg width="24" height="24" viewBox="0 0 24 24" fill="none" xmlns="http://www.w3.org/2000/svg">
<path d="M18.0498 2C18.5975 2 19.0537 1.99897 19.4248 2.0293C19.8045 2.06033 20.1609 2.12809 20.4981 2.2998C21.0155 2.56346 21.4365 2.98451 21.7002 3.50195C21.8719 3.8391 21.9397 4.19546 21.9707 4.5752C22.001 4.94632 22 5.40252 22 5.9502V18.0498C22 18.5975 22.001 19.0537 21.9707 19.4248C21.9397 19.8045 21.8719 20.1609 21.7002 20.498C21.4365 21.0155 21.0155 21.4365 20.4981 21.7002C20.1609 21.8719 19.8045 21.9397 19.4248 21.9707C19.0537 22.001 18.5975 22 18.0498 22H5.9502C5.40252 22 4.94633 22.001 4.5752 21.9707C4.19547 21.9397 3.8391 21.8719 3.50196 21.7002C2.98451 21.4365 2.56346 21.0155 2.29981 20.498C2.1281 20.1609 2.06033 19.8045 2.0293 19.4248C1.99898 19.0537 2 18.5975 2 18.0498V5.9502C2 5.40252 1.99898 4.94632 2.0293 4.5752C2.06033 4.19546 2.1281 3.8391 2.29981 3.50195C2.56346 2.98451 2.98451 2.56346 3.50196 2.2998C3.8391 2.12809 4.19547 2.06033 4.5752 2.0293C4.94633 1.99897 5.40252 2 5.9502 2H18.0498ZM5.9502 3.5C5.37777 3.5 4.99315 3.50024 4.69727 3.52441C4.41027 3.54788 4.27316 3.59059 4.18262 3.63672C3.94751 3.75655 3.75655 3.9475 3.63672 4.18262C3.59059 4.27316 3.54788 4.41027 3.52442 4.69727C3.50024 4.99314 3.5 5.37777 3.5 5.9502V18.0498C3.5 18.6222 3.50024 19.0069 3.52442 19.3027C3.54788 19.5897 3.59059 19.7268 3.63672 19.8174C3.75655 20.0525 3.94751 20.2435 4.18262 20.3633C4.27316 20.4094 4.41027 20.4521 4.69727 20.4756C4.99315 20.4998 5.37777 20.5 5.9502 20.5H8V3.5H5.9502ZM16 20.5H18.0498C18.6222 20.5 19.0069 20.4998 19.3027 20.4756C19.5897 20.4521 19.7268 20.4094 19.8174 20.3633C20.0525 20.2435 20.2435 20.0525 20.3633 19.8174C20.4094 19.7268 20.4521 19.5897 20.4756 19.3027C20.4998 19.0069 20.5 18.6222 20.5 18.0498V5.9502C20.5 5.37777 20.4998 4.99314 20.4756 4.69727C20.4521 4.41027 20.4094 4.27316 20.3633 4.18262C20.2435 3.9475 20.0525 3.75655 19.8174 3.63672C19.7268 3.59059 19.5897 3.54788 19.3027 3.52441C19.0069 3.50024 18.6222 3.5 18.0498 3.5H16V20.5ZM9.5 20.5H14.5V3.5H9.5V20.5Z" fill="#C6CACD"/>
</svg>
