<svg width="24" height="24" viewBox="0 0 24 24" fill="none" xmlns="http://www.w3.org/2000/svg">
<mask id="path-1-outside-1_9260_95550" maskUnits="userSpaceOnUse" x="0.75" y="0.75" width="23" height="23" fill="black">
<rect fill="white" x="0.75" y="0.75" width="23" height="23"/>
<path fill-rule="evenodd" clip-rule="evenodd" d="M9.94995 20.2C9.94995 21.3322 10.8678 22.25 12 22.25C13.1321 22.25 14.05 21.3322 14.05 20.2V19.1384C14.594 18.9824 15.1124 18.766 15.5976 18.4968L16.3486 19.2478C17.1492 20.0484 18.4472 20.0484 19.2478 19.2478C20.0484 18.4473 20.0484 17.1493 19.2478 16.3487L18.4967 15.5976C18.7659 15.1125 18.9824 14.594 19.1383 14.05H20.2C21.3322 14.05 22.25 13.1322 22.25 12C22.25 10.8678 21.3322 9.95 20.2 9.95H19.1383C18.9824 9.40599 18.7659 8.88754 18.4967 8.40242L19.2479 7.65129C20.0484 6.85071 20.0484 5.55273 19.2479 4.75215C18.4473 3.95158 17.1493 3.95158 16.3487 4.75215L15.5976 5.50326C15.1125 5.23403 14.594 5.01756 14.05 4.86161V3.8C14.05 2.66782 13.1321 1.75 12 1.75C10.8678 1.75 9.94995 2.66782 9.94995 3.8V4.86161C9.40592 5.01756 8.88745 5.23402 8.40232 5.50324L7.65123 4.75215C6.85066 3.95158 5.55267 3.95158 4.7521 4.75215C3.95152 5.55273 3.95152 6.85072 4.7521 7.65129L5.50319 8.40238C5.23397 8.88751 5.01751 9.40597 4.86156 9.95H3.8C2.66782 9.95 1.75 10.8678 1.75 12C1.75 13.1322 2.66782 14.05 3.8 14.05H4.86157C5.01752 14.5941 5.23398 15.1125 5.50322 15.5977L4.75218 16.3487C3.95161 17.1493 3.95161 18.4473 4.75218 19.2478C5.55276 20.0484 6.85074 20.0484 7.65132 19.2478L8.40237 18.4968C8.88749 18.766 9.40594 18.9824 9.94995 19.1384V20.2ZM12 15.75C14.0711 15.75 15.75 14.0711 15.75 12C15.75 9.92893 14.0711 8.25 12 8.25C9.92896 8.25 8.25003 9.92893 8.25003 12C8.25003 14.0711 9.92896 15.75 12 15.75Z"/>
</mask>
<path fill-rule="evenodd" clip-rule="evenodd" d="M9.94995 20.2C9.94995 21.3322 10.8678 22.25 12 22.25C13.1321 22.25 14.05 21.3322 14.05 20.2V19.1384C14.594 18.9824 15.1124 18.766 15.5976 18.4968L16.3486 19.2478C17.1492 20.0484 18.4472 20.0484 19.2478 19.2478C20.0484 18.4473 20.0484 17.1493 19.2478 16.3487L18.4967 15.5976C18.7659 15.1125 18.9824 14.594 19.1383 14.05H20.2C21.3322 14.05 22.25 13.1322 22.25 12C22.25 10.8678 21.3322 9.95 20.2 9.95H19.1383C18.9824 9.40599 18.7659 8.88754 18.4967 8.40242L19.2479 7.65129C20.0484 6.85071 20.0484 5.55273 19.2479 4.75215C18.4473 3.95158 17.1493 3.95158 16.3487 4.75215L15.5976 5.50326C15.1125 5.23403 14.594 5.01756 14.05 4.86161V3.8C14.05 2.66782 13.1321 1.75 12 1.75C10.8678 1.75 9.94995 2.66782 9.94995 3.8V4.86161C9.40592 5.01756 8.88745 5.23402 8.40232 5.50324L7.65123 4.75215C6.85066 3.95158 5.55267 3.95158 4.7521 4.75215C3.95152 5.55273 3.95152 6.85072 4.7521 7.65129L5.50319 8.40238C5.23397 8.88751 5.01751 9.40597 4.86156 9.95H3.8C2.66782 9.95 1.75 10.8678 1.75 12C1.75 13.1322 2.66782 14.05 3.8 14.05H4.86157C5.01752 14.5941 5.23398 15.1125 5.50322 15.5977L4.75218 16.3487C3.95161 17.1493 3.95161 18.4473 4.75218 19.2478C5.55276 20.0484 6.85074 20.0484 7.65132 19.2478L8.40237 18.4968C8.88749 18.766 9.40594 18.9824 9.94995 19.1384V20.2ZM12 15.75C14.0711 15.75 15.75 14.0711 15.75 12C15.75 9.92893 14.0711 8.25 12 8.25C9.92896 8.25 8.25003 9.92893 8.25003 12C8.25003 14.0711 9.92896 15.75 12 15.75Z" fill="white"/>
<path d="M14.05 19.1384L13.8433 18.4174C13.5216 18.5096 13.3 18.8038 13.3 19.1384H14.05ZM15.5976 18.4968L16.1279 17.9664C15.8912 17.7297 15.5263 17.6786 15.2336 17.841L15.5976 18.4968ZM16.3486 19.2478L16.879 18.7175H16.879L16.3486 19.2478ZM19.2478 16.3487L18.7175 16.879V16.879L19.2478 16.3487ZM18.4967 15.5976L17.8409 15.2337C17.6785 15.5264 17.7297 15.8913 17.9664 16.128L18.4967 15.5976ZM19.1383 14.05V13.3C18.8037 13.3 18.5096 13.5217 18.4174 13.8433L19.1383 14.05ZM19.1383 9.95L18.4174 10.1567C18.5096 10.4783 18.8037 10.7 19.1383 10.7V9.95ZM18.4967 8.40242L17.9664 7.87209C17.7297 8.10878 17.6785 8.47366 17.8409 8.76634L18.4967 8.40242ZM19.2479 7.65129L19.7782 8.18162L19.7782 8.18162L19.2479 7.65129ZM19.2479 4.75215L18.7175 5.28248V5.28248L19.2479 4.75215ZM16.3487 4.75215L16.8791 5.28248L16.8791 5.28248L16.3487 4.75215ZM15.5976 5.50326L15.2337 6.15905C15.5264 6.32147 15.8913 6.27028 16.128 6.03359L15.5976 5.50326ZM14.05 4.86161H13.3C13.3 5.19623 13.5216 5.49037 13.8433 5.58257L14.05 4.86161ZM9.94995 4.86161L10.1566 5.58257C10.4783 5.49037 10.7 5.19623 10.7 4.86161H9.94995ZM8.40232 5.50324L7.87199 6.03357C8.10868 6.27026 8.47356 6.32145 8.76624 6.15903L8.40232 5.50324ZM7.65123 4.75215L7.1209 5.28248V5.28248L7.65123 4.75215ZM5.50319 8.40238L6.15898 8.7663C6.3214 8.47362 6.27021 8.10874 6.03352 7.87205L5.50319 8.40238ZM4.86156 9.95V10.7C5.19618 10.7 5.49032 10.4783 5.58253 10.1567L4.86156 9.95ZM4.86157 14.05L5.58253 13.8433C5.49032 13.5217 5.19618 13.3 4.86157 13.3V14.05ZM5.50322 15.5977L6.03355 16.128C6.27024 15.8913 6.32143 15.5264 6.159 15.2337L5.50322 15.5977ZM4.75218 16.3487L5.28251 16.879V16.879L4.75218 16.3487ZM4.75218 19.2478L5.28251 18.7175H5.28251L4.75218 19.2478ZM7.65132 19.2478L7.12099 18.7175V18.7175L7.65132 19.2478ZM8.40237 18.4968L8.76629 17.841C8.47361 17.6786 8.10873 17.7298 7.87204 17.9665L8.40237 18.4968ZM9.94995 19.1384H10.7C10.7 18.8038 10.4783 18.5096 10.1566 18.4174L9.94995 19.1384ZM12 21.5C11.282 21.5 10.7 20.918 10.7 20.2H9.19995C9.19995 21.7464 10.4536 23 12 23V21.5ZM13.3 20.2C13.3 20.918 12.7179 21.5 12 21.5V23C13.5463 23 14.8 21.7464 14.8 20.2H13.3ZM13.3 19.1384V20.2H14.8V19.1384H13.3ZM15.2336 17.841C14.7976 18.0829 14.3319 18.2774 13.8433 18.4174L14.2566 19.8594C14.8561 19.6875 15.4272 19.449 15.9615 19.1526L15.2336 17.841ZM16.879 18.7175L16.1279 17.9664L15.0672 19.0271L15.8183 19.7782L16.879 18.7175ZM18.7175 18.7175C18.2098 19.2252 17.3867 19.2252 16.879 18.7175L15.8183 19.7782C16.9118 20.8716 18.6847 20.8716 19.7781 19.7782L18.7175 18.7175ZM18.7175 16.879C19.2251 17.3867 19.2251 18.2098 18.7175 18.7175L19.7781 19.7782C20.8716 18.6847 20.8716 16.9118 19.7781 15.8184L18.7175 16.879ZM17.9664 16.128L18.7175 16.879L19.7781 15.8184L19.027 15.0673L17.9664 16.128ZM18.4174 13.8433C18.2773 14.3319 18.0829 14.7977 17.8409 15.2337L19.1525 15.9616C19.449 15.4273 19.6875 14.8561 19.8593 14.2567L18.4174 13.8433ZM20.2 13.3H19.1383V14.8H20.2V13.3ZM21.5 12C21.5 12.718 20.918 13.3 20.2 13.3V14.8C21.7464 14.8 23 13.5464 23 12H21.5ZM20.2 10.7C20.918 10.7 21.5 11.282 21.5 12H23C23 10.4536 21.7464 9.2 20.2 9.2V10.7ZM19.1383 10.7H20.2V9.2H19.1383V10.7ZM17.8409 8.76634C18.0829 9.20234 18.2773 9.66809 18.4174 10.1567L19.8593 9.74334C19.6875 9.14388 19.449 8.57274 19.1525 8.0385L17.8409 8.76634ZM18.7175 7.12096L17.9664 7.87209L19.0271 8.93275L19.7782 8.18162L18.7175 7.12096ZM18.7175 5.28248C19.2252 5.79016 19.2252 6.61328 18.7175 7.12096L19.7782 8.18162C20.8717 7.08815 20.8717 5.31529 19.7782 4.22182L18.7175 5.28248ZM16.8791 5.28248C17.3867 4.7748 18.2099 4.7748 18.7175 5.28248L19.7782 4.22182C18.6847 3.12835 16.9119 3.12835 15.8184 4.22182L16.8791 5.28248ZM16.128 6.03359L16.8791 5.28248L15.8184 4.22182L15.0673 4.97293L16.128 6.03359ZM13.8433 5.58257C14.3319 5.72263 14.7977 5.91707 15.2337 6.15905L15.9616 4.84748C15.4273 4.55098 14.8561 4.31249 14.2566 4.14064L13.8433 5.58257ZM13.3 3.8V4.86161H14.8V3.8H13.3ZM12 2.5C12.7179 2.5 13.3 3.08203 13.3 3.8H14.8C14.8 2.2536 13.5463 1 12 1V2.5ZM10.7 3.8C10.7 3.08203 11.282 2.5 12 2.5V1C10.4536 1 9.19995 2.2536 9.19995 3.8H10.7ZM10.7 4.86161V3.8H9.19995V4.86161H10.7ZM8.76624 6.15903C9.20226 5.91706 9.66802 5.72263 10.1566 5.58257L9.74329 4.14065C9.14381 4.31249 8.57265 4.55097 8.03839 4.84745L8.76624 6.15903ZM7.1209 5.28248L7.87199 6.03357L8.93265 4.97291L8.18156 4.22182L7.1209 5.28248ZM5.28243 5.28248C5.79011 4.7748 6.61322 4.7748 7.1209 5.28248L8.18156 4.22182C7.0881 3.12836 5.31523 3.12836 4.22177 4.22182L5.28243 5.28248ZM5.28243 7.12096C4.77474 6.61328 4.77474 5.79017 5.28243 5.28248L4.22177 4.22182C3.1283 5.31529 3.1283 7.08815 4.22177 8.18162L5.28243 7.12096ZM6.03352 7.87205L5.28243 7.12096L4.22177 8.18162L4.97286 8.93271L6.03352 7.87205ZM5.58253 10.1567C5.72258 9.66808 5.91701 9.20232 6.15898 8.7663L4.8474 8.03846C4.55092 8.57271 4.31244 9.14386 4.1406 9.74334L5.58253 10.1567ZM3.8 10.7H4.86156V9.2H3.8V10.7ZM2.5 12C2.5 11.282 3.08203 10.7 3.8 10.7V9.2C2.2536 9.2 1 10.4536 1 12H2.5ZM3.8 13.3C3.08203 13.3 2.5 12.718 2.5 12H1C1 13.5464 2.2536 14.8 3.8 14.8V13.3ZM4.86157 13.3H3.8V14.8H4.86157V13.3ZM6.159 15.2337C5.91703 14.7977 5.72259 14.3319 5.58253 13.8433L4.1406 14.2567C4.31245 14.8562 4.55094 15.4273 4.84743 15.9616L6.159 15.2337ZM5.28251 16.879L6.03355 16.128L4.97289 15.0673L4.22185 15.8184L5.28251 16.879ZM5.28251 18.7175C4.77483 18.2098 4.77483 17.3867 5.28251 16.879L4.22185 15.8184C3.12838 16.9118 3.12838 18.6847 4.22185 19.7782L5.28251 18.7175ZM7.12099 18.7175C6.61331 19.2252 5.79019 19.2252 5.28251 18.7175L4.22185 19.7782C5.31532 20.8716 7.08818 20.8716 8.18165 19.7782L7.12099 18.7175ZM7.87204 17.9665L7.12099 18.7175L8.18165 19.7782L8.9327 19.0271L7.87204 17.9665ZM10.1566 18.4174C9.66804 18.2774 9.2023 18.0829 8.76629 17.841L8.03845 19.1526C8.57269 19.449 9.14383 19.6875 9.74328 19.8593L10.1566 18.4174ZM10.7 20.2V19.1384H9.19995V20.2H10.7ZM15 12C15 13.6569 13.6569 15 12 15V16.5C14.4853 16.5 16.5 14.4853 16.5 12H15ZM12 9C13.6569 9 15 10.3431 15 12H16.5C16.5 9.51472 14.4853 7.5 12 7.5V9ZM9.00003 12C9.00003 10.3431 10.3432 9 12 9V7.5C9.51475 7.5 7.50003 9.51472 7.50003 12H9.00003ZM12 15C10.3432 15 9.00003 13.6569 9.00003 12H7.50003C7.50003 14.4853 9.51475 16.5 12 16.5V15Z" fill="white" mask="url(#path-1-outside-1_9260_95550)"/>
</svg>
