<svg width="24" height="24" viewBox="0 0 24 24" fill="none" xmlns="http://www.w3.org/2000/svg">
<path fill-rule="evenodd" clip-rule="evenodd" d="M10.7582 5.99999L13.5262 4.01047C14.3178 3.44154 14.9543 2.984 15.4785 2.67544C16.001 2.36785 16.5321 2.13225 17.0962 2.15201C17.9134 2.18062 18.6754 2.57135 19.1755 3.21817C19.5208 3.66474 19.6395 4.23351 19.6947 4.83732C19.7468 5.40763 19.7498 6.13599 19.75 7.0329C21.5847 7.27735 23 8.84832 23 10.7499C23 12.6514 21.5847 14.2224 19.75 14.4668C19.7498 15.3636 19.7468 16.092 19.6947 16.6623C19.6395 17.2661 19.5208 17.8349 19.1755 18.2815C18.6754 18.9283 17.9134 19.319 17.0962 19.3476C16.5321 19.3674 16.001 19.1318 15.4785 18.8242C14.9544 18.5157 14.3179 18.0582 13.5265 17.4894L13.5265 17.4893L13.5264 17.4893L10.7587 15.5L9.49998 15.5L9.49998 18.7501C9.49998 19.9927 8.49262 21.0001 7.24998 21.0001C6.00734 21.0001 4.99998 19.9927 4.99998 18.7501L4.99998 15.4411C2.733 15.0815 1 13.1181 1 10.75C1 8.12664 3.12665 5.99999 5.75 5.99999L10.7582 5.99999ZM19.75 12.9441C20.752 12.7167 21.5 11.8206 21.5 10.7499C21.5 9.67906 20.752 8.78298 19.75 8.55561L19.75 12.9441ZM6.49998 15.5001L6.49998 18.7501C6.49998 19.1643 6.83577 19.5001 7.24998 19.5001C7.6642 19.5001 7.99998 19.1643 7.99998 18.7501L7.99998 15.5001L6.49998 15.5001Z" fill="white"/>
</svg>
